<?xml version="1.0" encoding="UTF-8" standalone="no"?>
<!-- Created with Inkscape (http://www.inkscape.org/) -->

<svg
   xmlns:dc="http://purl.org/dc/elements/1.1/"
   xmlns:cc="http://creativecommons.org/ns#"
   xmlns:rdf="http://www.w3.org/1999/02/22-rdf-syntax-ns#"
   xmlns:svg="http://www.w3.org/2000/svg"
   xmlns="http://www.w3.org/2000/svg"
   xmlns:sodipodi="http://sodipodi.sourceforge.net/DTD/sodipodi-0.dtd"
   xmlns:inkscape="http://www.inkscape.org/namespaces/inkscape"
   width="210mm"
   height="297mm"
   id="svg5592"
   version="1.1"
   inkscape:version="0.48.4 r9939"
   sodipodi:docname="bricolabs_logo.svg">
  <defs
     id="defs3">
    <clipPath
       clipPathUnits="userSpaceOnUse"
       id="clipPath3880">
      <path
         inkscape:connector-curvature="0"
         d="m 0,841.89 595.28,0 L 595.28,0 0,0 0,841.89 z"
         id="path3882" />
    </clipPath>
  </defs>
  <sodipodi:namedview
     inkscape:document-units="mm"
     id="base"
     pagecolor="#ffffff"
     bordercolor="#666666"
     borderopacity="1.0"
     inkscape:pageopacity="0.0"
     inkscape:pageshadow="2"
     inkscape:zoom="0.97412956"
     inkscape:cx="54.267295"
     inkscape:cy="520.72999"
     inkscape:current-layer="g5511"
     showgrid="false"
     inkscape:window-width="1600"
     inkscape:window-height="834"
     inkscape:window-x="0"
     inkscape:window-y="27"
     inkscape:window-maximized="1" />
  <metadata
     id="metadata4">
    <rdf:RDF>
      <cc:Work
         rdf:about="">
        <dc:format>image/svg+xml</dc:format>
        <dc:type
           rdf:resource="http://purl.org/dc/dcmitype/StillImage" />
        <dc:title></dc:title>
      </cc:Work>
    </rdf:RDF>
  </metadata>
  <g
     inkscape:label="Layer 1"
     inkscape:groupmode="layer"
     id="layer1">
    <g
       transform="matrix(8.017186,0,0,-8.017186,-292.54272,4353.9135)"
       id="g5511">
      <g
         id="g3017">
        <g
           id="g3876">
          <g
             id="g3878"
             clip-path="url(#clipPath3880)">
            <g
               id="g5708">
              <g
                 transform="translate(53.812,451.7334)"
                 id="g3904">
                <path
                   inkscape:connector-curvature="0"
                   id="path3906"
                   style="fill:#050606;fill-opacity:1;fill-rule:nonzero;stroke:none"
                   d="m 0,0 c -0.217,0 -0.35,-0.051 -0.4,-0.152 -0.051,-0.101 -0.077,-0.364 -0.077,-0.785 l 0,-1.025 c 0,-0.389 0.094,-0.584 0.282,-0.584 l 0.076,-0.012 0.114,-0.005 0.081,0 c 0.416,0 0.741,0.119 0.979,0.355 0.236,0.236 0.353,0.539 0.353,0.908 l 0,0.091 c 0,0.329 -0.104,0.61 -0.316,0.847 -0.211,0.234 -0.469,0.351 -0.772,0.351 L 0.244,0 0,0 z m -0.482,-4.523 c 0,-0.781 0.033,-1.221 0.097,-1.323 0.114,-0.176 0.354,-0.264 0.721,-0.264 l 0.049,0.004 c 0.423,0 0.747,0.124 0.972,0.372 0.227,0.247 0.339,0.562 0.339,0.945 l 0,0.151 c 0,0.412 -0.144,0.751 -0.433,1.016 -0.288,0.266 -0.666,0.398 -1.132,0.398 l -0.272,0 c -0.158,0 -0.255,-0.03 -0.293,-0.091 -0.035,-0.062 -0.053,-0.175 -0.053,-0.342 l 0,-0.683 0.005,-0.043 0,-0.14 z m -1.565,3.109 c 0,0.447 -0.027,0.76 -0.082,0.934 -0.055,0.175 -0.174,0.334 -0.36,0.477 -0.186,0.143 -0.279,0.259 -0.279,0.35 0,0.15 0.113,0.243 0.338,0.272 0.227,0.031 0.821,0.046 1.785,0.046 l 0.84,0.012 c 0.921,0 1.582,-0.139 1.983,-0.417 0.492,-0.344 0.738,-0.822 0.738,-1.436 0,-0.527 -0.288,-0.978 -0.862,-1.355 -0.261,-0.173 -0.39,-0.263 -0.39,-0.271 0.003,-0.013 0.08,-0.05 0.232,-0.107 0.416,-0.162 0.727,-0.355 0.932,-0.575 0.308,-0.335 0.461,-0.71 0.461,-1.126 l 0,-0.142 c 0,-0.636 -0.264,-1.134 -0.788,-1.494 -0.525,-0.362 -1.24,-0.542 -2.144,-0.542 l -0.849,0 -0.141,0.006 -0.818,0 -0.542,-0.006 -0.13,0 c -0.455,0 -0.684,0.084 -0.684,0.254 0,0.138 0.102,0.266 0.302,0.386 0.2,0.118 0.333,0.269 0.401,0.452 0.067,0.182 0.1,0.714 0.1,1.595 l -0.006,0.434 -0.011,0.292 c -0.002,0.098 -0.004,0.192 -0.004,0.286 l -0.012,0.287 c -0.002,0.098 -0.005,0.193 -0.005,0.282 l -0.005,0.288 0,0.818 z" />
              </g>
              <g
                 transform="translate(58.2495,445.1953)"
                 id="g3908">
                <path
                   inkscape:connector-curvature="0"
                   id="path3910"
                   style="fill:#050606;fill-opacity:1;fill-rule:nonzero;stroke:none"
                   d="M 0,0 C 0,0.107 0.08,0.219 0.24,0.332 0.401,0.445 0.511,0.589 0.568,0.76 0.627,0.931 0.655,1.383 0.655,2.114 0.655,2.847 0.627,3.287 0.571,3.439 0.516,3.59 0.412,3.741 0.262,3.892 0.113,4.042 0.037,4.159 0.037,4.247 c 0,0.107 0.096,0.199 0.287,0.275 0.38,0.148 0.78,0.222 1.198,0.222 l 0.097,0 c 0.181,0 0.313,-0.113 0.397,-0.341 0.082,-0.227 0.16,-0.341 0.232,-0.341 0.032,0 0.113,0.062 0.244,0.185 0.358,0.332 0.66,0.497 0.91,0.497 l 0.086,0 c 0.178,0 0.338,-0.066 0.483,-0.2 C 4.115,4.41 4.187,4.249 4.187,4.062 4.187,3.874 4.126,3.716 4.003,3.589 3.881,3.46 3.729,3.395 3.549,3.395 3.494,3.395 3.385,3.436 3.221,3.516 3.057,3.594 2.927,3.635 2.834,3.635 2.577,3.635 2.369,3.479 2.21,3.168 2.098,2.952 2.042,2.581 2.042,2.058 2.042,1.534 2.094,1.147 2.199,0.898 2.235,0.812 2.348,0.67 2.537,0.473 2.728,0.276 2.822,0.122 2.822,0.01 c 0,-0.17 -0.535,-0.254 -1.603,-0.254 l -0.661,-0.011 -0.103,0 C 0.151,-0.255 0,-0.171 0,0" />
              </g>
              <g
                 transform="translate(64.5601,452.4375)"
                 id="g3912">
                <path
                   inkscape:connector-curvature="0"
                   id="path3914"
                   style="fill:#050606;fill-opacity:1;fill-rule:nonzero;stroke:none"
                   d="m 0,0 c 0.214,0 0.391,-0.062 0.531,-0.183 0.141,-0.12 0.211,-0.271 0.211,-0.451 l 0,-0.13 C 0.731,-0.818 0.727,-0.879 0.727,-0.945 0.727,-1.013 0.662,-1.11 0.533,-1.237 0.406,-1.366 0.263,-1.431 0.104,-1.431 0.031,-1.444 -0.014,-1.452 -0.031,-1.452 l -0.163,0 c -0.055,0.011 -0.098,0.016 -0.13,0.016 -0.145,0 -0.28,0.062 -0.405,0.187 -0.124,0.124 -0.186,0.277 -0.186,0.457 l 0,0.105 c 0,0.179 0.065,0.335 0.198,0.467 0.131,0.132 0.279,0.199 0.442,0.199 L -0.086,0 0,0 z m -1.045,-7.482 c -0.267,0 -0.4,0.082 -0.4,0.244 l 0,0.059 c 0,0.08 0.09,0.183 0.269,0.309 0.181,0.127 0.303,0.287 0.364,0.482 0.061,0.196 0.091,0.664 0.091,1.409 0,0.744 -0.031,1.188 -0.093,1.333 -0.064,0.144 -0.183,0.278 -0.358,0.401 -0.176,0.123 -0.264,0.243 -0.264,0.363 0,0.119 0.082,0.2 0.245,0.244 0.468,0.126 0.982,0.189 1.539,0.189 0.175,0 0.279,-0.081 0.308,-0.243 0.004,-0.019 0.005,-0.558 0.005,-1.62 0,-1.062 0.04,-1.764 0.12,-2.108 0.031,-0.141 0.129,-0.291 0.289,-0.453 0.16,-0.159 0.242,-0.272 0.242,-0.338 l 0,-0.065 c 0,-0.137 -0.117,-0.206 -0.347,-0.206 l -0.547,0 -0.082,0.005 -0.482,0 -0.331,-0.005 -0.568,0 z" />
              </g>
              <g
                 transform="translate(69.2788,444.8477)"
                 id="g3916">
                <path
                   inkscape:connector-curvature="0"
                   id="path3918"
                   style="fill:#050606;fill-opacity:1;fill-rule:nonzero;stroke:none"
                   d="M 0,0 -0.26,0 C -0.566,0 -0.868,0.064 -1.164,0.195 -1.768,0.459 -2.189,0.894 -2.432,1.5 -2.555,1.804 -2.616,2.093 -2.616,2.367 l 0,0.272 c 0,0.306 0.066,0.626 0.2,0.958 0.256,0.629 0.687,1.09 1.295,1.382 0.328,0.155 0.637,0.232 0.926,0.232 l 0.244,0 C 0.812,5.211 1.323,5.133 1.585,4.973 1.848,4.815 1.978,4.556 1.978,4.198 1.978,4.068 1.935,3.953 1.848,3.854 1.761,3.756 1.661,3.706 1.55,3.706 c -0.113,0 -0.335,0.133 -0.667,0.401 -0.332,0.267 -0.654,0.4 -0.969,0.4 -0.314,0 -0.588,-0.188 -0.818,-0.564 -0.174,-0.285 -0.26,-0.698 -0.26,-1.237 0,-0.54 0.168,-0.995 0.504,-1.367 0.245,-0.272 0.57,-0.406 0.974,-0.406 0.213,0 0.481,0.051 0.802,0.156 0.321,0.104 0.55,0.157 0.683,0.157 C 1.933,1.246 2,1.199 2,1.105 2,0.863 1.787,0.618 1.363,0.371 0.938,0.124 0.484,0 0,0" />
              </g>
              <g
                 transform="translate(74.7788,445.5029)"
                 id="g3920">
                <path
                   inkscape:connector-curvature="0"
                   id="path3922"
                   style="fill:#050606;fill-opacity:1;fill-rule:nonzero;stroke:none"
                   d="M 0,0 0.146,0 C 0.437,0 0.664,0.148 0.822,0.444 1.035,0.845 1.143,1.32 1.143,1.868 l 0,0.061 -0.006,0.064 C 1.137,2.586 1.034,3.075 0.828,3.459 0.623,3.844 0.355,4.037 0.026,4.037 l -0.047,0 c -0.33,0 -0.588,-0.178 -0.776,-0.533 C -0.984,3.151 -1.078,2.701 -1.078,2.157 l 0,-0.125 c 0,-0.571 0.104,-1.053 0.313,-1.444 C -0.555,0.196 -0.301,0 0,0 m 2.691,2.271 0,-0.18 C 2.691,1.312 2.406,0.649 1.836,0.108 1.337,-0.365 0.705,-0.601 -0.061,-0.601 c -0.765,0 -1.367,0.207 -1.802,0.623 -0.514,0.491 -0.77,1.071 -0.77,1.739 l 0,0.178 c 0,0.358 0.072,0.708 0.215,1.051 0.279,0.672 0.77,1.153 1.475,1.441 0.322,0.133 0.657,0.201 1.007,0.201 l 0.173,0 C 0.949,4.632 1.543,4.394 2.02,3.917 2.229,3.707 2.395,3.452 2.513,3.15 2.633,2.849 2.691,2.555 2.691,2.271" />
              </g>
              <g
                 transform="translate(78.4292,452.1445)"
                 id="g3924">
                <path
                   inkscape:connector-curvature="0"
                   id="path3926"
                   style="fill:#050606;fill-opacity:1;fill-rule:nonzero;stroke:none"
                   d="m 0,0 c 0,0.163 0.115,0.244 0.347,0.244 l 1.105,0 0.157,-0.005 c 0.873,0 1.356,-0.01 1.447,-0.028 C 3.207,0.182 3.283,0.11 3.283,-0.003 3.283,-0.116 3.172,-0.266 2.95,-0.45 2.729,-0.634 2.592,-0.836 2.541,-1.057 2.451,-1.454 2.406,-2.314 2.406,-3.64 l 0,-0.829 0.01,-0.796 c 0,-0.496 0.068,-0.821 0.207,-0.976 0.137,-0.155 0.408,-0.233 0.815,-0.233 0.406,0 0.781,0.094 1.124,0.283 0.159,0.087 0.387,0.295 0.688,0.63 0.3,0.334 0.536,0.501 0.71,0.501 0.118,0 0.179,-0.09 0.179,-0.27 0,-0.751 -0.09,-1.285 -0.267,-1.599 -0.075,-0.133 -0.31,-0.2 -0.704,-0.2 C 4.389,-7.158 3.919,-7.172 3.76,-7.172 l -2.053,-0.021 -0.996,0 c -0.373,0 -0.559,0.098 -0.559,0.297 0,0.01 0.128,0.177 0.385,0.499 0.119,0.151 0.205,0.414 0.26,0.785 0.054,0.372 0.081,1.034 0.081,1.987 l 0,1.768 -0.011,0.649 c 0,0.224 -0.036,0.391 -0.107,0.501 C 0.687,-0.598 0.542,-0.481 0.325,-0.362 0.108,-0.243 0,-0.123 0,0" />
              </g>
              <g
                 transform="translate(88.0669,447.1387)"
                 id="g3928">
                <path
                   inkscape:connector-curvature="0"
                   id="path3930"
                   style="fill:#050606;fill-opacity:1;fill-rule:nonzero;stroke:none"
                   d="m 0,0 c 0,0.131 -0.043,0.195 -0.13,0.195 l -0.065,0 c -0.318,0 -0.604,-0.109 -0.859,-0.328 -0.255,-0.219 -0.382,-0.437 -0.382,-0.658 l 0,-0.168 c 0,-0.133 0.045,-0.252 0.136,-0.357 0.09,-0.105 0.187,-0.158 0.287,-0.158 l 0.049,-0.009 0.125,0 c 0.27,0 0.499,0.13 0.688,0.394 0.097,0.138 0.145,0.387 0.145,0.748 L 0,-0.286 0,0 z m -2.118,1.207 c -0.332,0 -0.498,0.146 -0.498,0.433 0,0.287 0.227,0.558 0.681,0.817 0.456,0.259 0.971,0.387 1.545,0.387 0.575,0 1.014,-0.148 1.319,-0.441 C 1.234,2.109 1.388,1.664 1.388,1.067 L 1.382,0.942 C 1.378,0.86 1.376,0.775 1.376,0.688 L 1.371,0.563 C 1.366,0.455 1.362,0.344 1.357,0.229 1.352,0.111 1.35,0.013 1.35,-0.07 c 0,-0.559 0.034,-0.902 0.105,-1.027 0.07,-0.124 0.194,-0.219 0.372,-0.284 0.18,-0.065 0.269,-0.141 0.269,-0.228 0,-0.162 -0.133,-0.308 -0.401,-0.438 -0.266,-0.131 -0.507,-0.195 -0.717,-0.195 -0.211,0 -0.411,0.067 -0.598,0.203 -0.189,0.135 -0.316,0.203 -0.383,0.203 -0.066,0 -0.183,-0.044 -0.347,-0.133 -0.165,-0.089 -0.317,-0.163 -0.458,-0.221 -0.14,-0.061 -0.373,-0.091 -0.696,-0.091 -0.322,0 -0.619,0.122 -0.888,0.366 -0.269,0.243 -0.403,0.557 -0.403,0.935 0,0.379 0.156,0.702 0.472,0.969 0.313,0.267 0.821,0.497 1.521,0.689 0.241,0.067 0.437,0.146 0.585,0.233 0.149,0.086 0.223,0.242 0.223,0.467 0,0.226 -0.064,0.404 -0.191,0.535 -0.126,0.129 -0.298,0.195 -0.519,0.195 -0.221,0 -0.458,-0.15 -0.715,-0.45 -0.256,-0.3 -0.489,-0.451 -0.699,-0.451" />
              </g>
              <g
                 transform="translate(92.9585,446.6738)"
                 id="g3932">
                <path
                   inkscape:connector-curvature="0"
                   id="path3934"
                   style="fill:#050606;fill-opacity:1;fill-rule:nonzero;stroke:none"
                   d="M 0,0 C 0,-0.329 0.077,-0.604 0.23,-0.827 0.384,-1.049 0.585,-1.16 0.835,-1.16 l 0.135,0 c 0.267,0 0.5,0.161 0.697,0.482 0.196,0.323 0.294,0.725 0.294,1.208 l 0,0.292 C 1.961,1.31 1.86,1.719 1.658,2.048 1.455,2.376 1.225,2.54 0.964,2.54 l -0.124,0 C 0.591,2.54 0.39,2.442 0.238,2.245 0.086,2.048 0.011,1.782 0.011,1.446 0,1.349 -0.005,1.298 -0.005,1.295 l -0.016,-0.358 0,-0.103 -0.005,-0.163 0,-0.054 0.005,-0.055 0,-0.108 0.016,-0.356 C -0.001,0.061 0,0.028 0,0 m -1.512,2.931 0,0.795 c 0,0.445 -0.03,0.769 -0.092,0.973 -0.06,0.204 -0.168,0.366 -0.322,0.488 -0.153,0.121 -0.23,0.222 -0.23,0.305 0,0.166 0.107,0.287 0.32,0.363 0.36,0.13 0.77,0.196 1.225,0.196 l 0.102,0 c 0.21,0 0.334,-0.119 0.373,-0.358 0.004,-0.021 0.006,-0.474 0.006,-1.357 0,-0.883 0.08,-1.324 0.238,-1.324 0.062,0 0.222,0.042 0.483,0.127 0.26,0.085 0.525,0.127 0.797,0.127 0.27,0 0.537,-0.068 0.798,-0.205 C 2.448,2.923 2.669,2.739 2.85,2.507 3.222,2.035 3.407,1.464 3.407,0.795 l 0,-0.141 C 3.407,-0.023 3.196,-0.6 2.771,-1.07 2.347,-1.542 1.854,-1.777 1.295,-1.777 l -0.124,0 c -0.171,0 -0.453,0.044 -0.848,0.13 -0.396,0.085 -0.597,0.129 -0.605,0.129 l -0.601,-0.086 c -0.266,0 -0.435,0.08 -0.504,0.238 -0.068,0.159 -0.102,0.531 -0.102,1.116 l 0.037,1.24 -0.011,0.266 C -1.47,1.433 -1.474,1.563 -1.474,1.646 L -1.484,1.9 c -0.003,0.088 -0.005,0.174 -0.005,0.26 l -0.012,0.261 -0.011,0.51 z" />
              </g>
              <g
                 transform="translate(97.9214,444.9941)"
                 id="g3936">
                <path
                   inkscape:connector-curvature="0"
                   id="path3938"
                   style="fill:#050606;fill-opacity:1;fill-rule:nonzero;stroke:none"
                   d="M 0,0 C -0.235,0 -0.39,0.078 -0.463,0.235 -0.537,0.393 -0.574,0.681 -0.574,1.1 l 0,0.129 c 0,0.195 0.071,0.292 0.216,0.292 0.119,0 0.311,-0.131 0.575,-0.394 C 0.479,0.862 0.69,0.687 0.848,0.595 1.004,0.505 1.198,0.46 1.431,0.46 c 0.23,0 0.427,0.05 0.595,0.149 0.166,0.1 0.248,0.253 0.248,0.461 0,0.207 -0.087,0.37 -0.267,0.49 -0.179,0.12 -0.513,0.274 -1,0.463 C 0.52,2.212 0.174,2.404 -0.027,2.6 c -0.296,0.289 -0.445,0.644 -0.445,1.065 0,0.419 0.177,0.772 0.532,1.053 C 0.413,5 0.82,5.141 1.278,5.141 l 0.153,0 c 0.155,0 0.34,-0.02 0.554,-0.059 0.214,-0.041 0.448,-0.061 0.7,-0.061 0.25,0 0.414,-0.058 0.49,-0.176 C 3.249,4.729 3.288,4.405 3.288,3.878 3.288,3.723 3.23,3.645 3.115,3.645 2.999,3.645 2.766,3.791 2.417,4.084 2.065,4.377 1.773,4.523 1.539,4.523 1.304,4.523 1.105,4.479 0.945,4.391 0.783,4.303 0.704,4.158 0.704,3.961 0.704,3.762 0.832,3.59 1.089,3.445 1.11,3.435 1.393,3.318 1.934,3.098 2.476,2.878 2.852,2.67 3.061,2.475 3.357,2.197 3.505,1.868 3.505,1.489 l 0,-0.145 C 3.505,0.938 3.321,0.59 2.953,0.295 2.584,0.001 2.138,-0.146 1.613,-0.146 l -0.15,0 C 1.35,-0.146 1.14,-0.12 0.831,-0.068 0.522,-0.016 0.359,0.01 0.342,0.01 L 0.222,0.006 C 0.146,0.002 0.072,0 0,0" />
              </g>
              <text
                 style="font-size:12px"
                 y="-444.86328"
                 x="101.20403"
                 id="text3940"
                 transform="scale(1,-1)">
                <tspan
                   style="font-size:10.59589958px;font-variant:normal;font-weight:bold;font-stretch:normal;writing-mode:lr-tb;fill:#231f20;fill-opacity:1;fill-rule:nonzero;stroke:none;font-family:Averia;-inkscape-font-specification:Averia-Bold"
                   x="101.20403"
                   y="-444.86328"
                   id="tspan3942">.</tspan>
              </text>
              <g
                 id="g3952"
                 transform="translate(107.436,444.84767)">
                <path
                   inkscape:connector-curvature="0"
                   d="M 0,0 -0.261,0 C -0.567,0 -0.87,0.064 -1.165,0.195 -1.768,0.459 -2.19,0.894 -2.433,1.5 -2.556,1.804 -2.617,2.093 -2.617,2.367 l 0,0.272 c 0,0.306 0.066,0.626 0.2,0.958 0.256,0.629 0.688,1.09 1.295,1.382 0.329,0.155 0.639,0.232 0.928,0.232 l 0.243,0 C 0.812,5.211 1.323,5.133 1.584,4.973 1.846,4.815 1.977,4.556 1.977,4.198 1.977,4.068 1.935,3.953 1.848,3.854 1.761,3.756 1.661,3.706 1.549,3.706 c -0.112,0 -0.333,0.133 -0.665,0.401 -0.333,0.267 -0.656,0.4 -0.972,0.4 -0.313,0 -0.587,-0.188 -0.818,-0.564 -0.172,-0.285 -0.259,-0.698 -0.259,-1.237 0,-0.54 0.169,-0.995 0.503,-1.367 0.246,-0.272 0.572,-0.406 0.975,-0.406 0.214,0 0.481,0.051 0.803,0.156 0.321,0.104 0.549,0.157 0.683,0.157 0.134,0 0.2,-0.047 0.2,-0.141 C 1.999,0.863 1.787,0.618 1.362,0.371 0.937,0.124 0.483,0 0,0"
                   style="fill:#050606;fill-opacity:1;fill-rule:nonzero;stroke:none"
                   id="path3954" />
              </g>
              <g
                 id="g3956"
                 transform="translate(112.7876,444.91207)">
                <path
                   inkscape:connector-curvature="0"
                   d="m 0,0 -0.261,0 c -0.306,0 -0.608,0.065 -0.905,0.195 -0.603,0.263 -1.025,0.7 -1.268,1.306 -0.122,0.304 -0.183,0.592 -0.183,0.866 l 0,0.272 c 0,0.306 0.067,0.626 0.201,0.959 0.256,0.629 0.687,1.089 1.295,1.381 0.328,0.156 0.636,0.233 0.927,0.233 l 0.243,0 C 0.81,5.212 1.321,5.133 1.584,4.973 1.846,4.814 1.978,4.557 1.978,4.199 1.978,4.068 1.933,3.954 1.847,3.854 1.76,3.755 1.661,3.705 1.549,3.705 1.437,3.705 1.215,3.84 0.882,4.106 0.551,4.375 0.227,4.508 -0.087,4.508 -0.401,4.508 -0.674,4.32 -0.904,3.945 -1.078,3.658 -1.166,3.246 -1.166,2.706 c 0,-0.54 0.169,-0.995 0.505,-1.368 0.246,-0.271 0.57,-0.405 0.974,-0.405 0.213,0 0.481,0.051 0.802,0.156 0.322,0.105 0.549,0.157 0.683,0.157 0.134,0 0.2,-0.046 0.2,-0.141 C 1.998,0.863 1.786,0.619 1.362,0.371 0.937,0.124 0.483,0 0,0"
                   style="fill:#050606;fill-opacity:1;fill-rule:nonzero;stroke:none"
                   id="path3958" />
              </g>
            </g>
          </g>
        </g>
        <g
           id="g3016">
          <path
             inkscape:connector-curvature="0"
             id="path3962"
             style="fill:#050606;fill-opacity:1;fill-rule:evenodd;stroke:none"
             d="M 0,0 -1.054,0 -1.58,0.911 -1.054,1.823 0,1.823 0.527,0.911 0,0 z m -21.487,11.866 c -0.599,-0.002 -1.087,0.484 -1.089,1.081 -0.002,0.601 0.482,1.088 1.082,1.09 0.599,0.002 1.087,-0.482 1.09,-1.081 0.002,-0.601 -0.484,-1.088 -1.083,-1.09 M -42.327,0 l -1.053,0 -0.526,0.911 0.526,0.912 1.053,0 0.526,-0.912 L -42.327,0 z m 21.557,36.364 -1.052,0 -0.528,0.912 0.528,0.912 1.052,0 0.527,-0.912 -0.527,-0.912 z M 1.219,1.941 C 0.757,2.348 0.246,2.699 -0.244,3.074 -0.768,3.473 -1.112,3.95 -1.007,4.659 c 0.14,0.929 0.14,1.865 -0.021,2.786 -0.372,2.139 -1.375,3.936 -3.124,5.247 -1.97,1.476 -4.167,1.977 -6.564,1.245 -1.794,-0.55 -3.128,-1.679 -3.895,-3.404 -0.808,-1.809 -0.607,-4.113 0.898,-5.576 1.091,-1.06 2.376,-1.504 3.869,-0.968 0.941,0.336 1.541,0.997 1.699,2.014 0.089,0.569 -0.246,1.199 -0.76,1.429 -0.284,0.097 -0.45,0.132 -0.699,0.134 -0.373,0.002 -0.908,-0.204 -1.156,-0.136 -0.373,0.101 -0.533,0.331 -0.597,0.444 -0.147,0.278 -0.13,0.625 -0.093,0.823 0.062,0.323 0.144,0.554 0.221,0.67 0.222,0.365 0.626,0.651 0.949,0.844 0.821,0.49 1.717,0.445 2.575,0.24 1.215,-0.291 2.019,-1.146 2.602,-2.222 0.062,-0.079 0.066,-0.187 0.136,-0.263 0.708,-2.073 0.39,-3.977 -1.046,-5.635 -1.271,-1.474 -2.91,-2.188 -4.876,-2.227 -1.934,-0.037 -3.582,0.627 -5.046,1.837 -0.306,0.222 -0.561,0.496 -0.801,0.785 -0.961,1.113 -1.601,2.4 -1.884,3.832 -0.253,1.276 -0.239,2.563 0.056,3.848 0.471,2.055 1.534,3.747 3.11,5.115 1.479,1.284 2.646,2.791 3.408,4.593 0.93,2.204 1.167,4.49 0.69,6.842 -0.441,2.171 -1.446,4.037 -3.029,5.584 -1.132,1.106 -2.443,1.932 -3.97,2.393 -0.477,0.137 -0.65,0.672 -0.707,1.002 -0.094,0.463 -0.147,0.937 -0.205,1.408 -0.081,0.689 -0.052,1.579 -0.985,1.728 -0.746,-0.003 -1.307,-0.005 -2.053,-0.008 -0.759,-0.109 -0.863,-0.821 -0.922,-1.433 -0.05,-0.541 -0.117,-1.084 -0.228,-1.614 -0.1,-0.472 -0.33,-0.894 -0.828,-1.061 -1.985,-0.666 -3.574,-1.846 -4.688,-3.625 -1.108,-1.773 -1.547,-3.685 -1.111,-5.766 0.461,-2.207 1.652,-3.869 3.67,-4.9 2.308,-1.178 5.241,-0.762 6.876,1.305 1.011,1.277 1.334,2.704 0.682,4.266 -0.065,0.077 -0.066,0.188 -0.138,0.261 -0.202,0.447 -0.522,0.796 -0.911,1.084 -0.827,0.613 -1.853,0.699 -2.654,0.224 -0.215,-0.132 -0.322,-0.252 -0.466,-0.462 -0.369,-0.607 -0.298,-0.92 0.223,-1.503 0.166,-0.26 0.241,-0.367 0.238,-0.68 -0.042,-0.472 -0.059,-0.564 -0.191,-0.82 -0.106,-0.206 -0.184,-0.276 -0.39,-0.387 -0.173,-0.095 -0.312,-0.178 -0.615,-0.224 -0.398,-0.062 -0.854,0.06 -1.228,0.273 -0.432,0.269 -0.75,0.565 -1.014,0.996 -0.72,1.182 -0.757,2.452 -0.221,3.68 0.984,2.251 3.166,3.253 5.565,2.997 1.477,-0.158 2.716,-0.822 3.761,-1.873 1.095,-1.1 1.749,-2.427 1.976,-3.943 0.231,-1.555 0.029,-3.068 -0.651,-4.506 -0.977,-2.063 -2.535,-3.519 -4.627,-4.379 -1.987,-0.816 -4.037,-0.881 -6.109,-0.336 -0.854,0.224 -1.675,0.563 -2.548,0.722 -2.119,0.386 -4.201,0.276 -6.244,-0.447 -1.365,-0.482 -2.602,-1.173 -3.686,-2.134 -0.132,-0.111 -0.243,-0.247 -0.388,-0.341 -0.153,-0.155 -0.307,-0.309 -0.459,-0.464 -0.095,-0.147 -0.23,-0.256 -0.339,-0.391 -1.298,-1.47 -2.079,-3.182 -2.436,-5.104 -0.207,-1.113 -0.223,-2.226 -0.032,-3.334 0.118,-0.692 -0.068,-1.25 -0.58,-1.693 -0.523,-0.453 -1.091,-0.854 -1.617,-1.305 -0.386,-0.332 -0.56,-0.853 -0.293,-1.329 0.291,-0.513 0.592,-1.023 0.899,-1.528 0.23,-0.38 0.85,-0.584 1.253,-0.421 0.681,0.278 1.356,0.578 2.046,0.837 0.45,0.168 0.911,0.141 1.289,-0.191 1.42,-1.246 3.05,-2.036 4.931,-2.248 1.985,-0.225 3.826,0.211 5.483,1.343 0.971,0.665 1.754,1.504 2.285,2.565 0.072,0.072 0.072,0.183 0.138,0.261 0.558,1.113 0.778,2.29 0.644,3.528 -0.229,2.119 -1.245,3.716 -3.162,4.699 -1.64,0.839 -3.705,0.567 -5.001,-0.647 -0.975,-0.911 -1.316,-2.2 -0.888,-3.331 0.286,-0.497 0.606,-0.952 1.165,-1.184 0.651,-0.271 1.36,-0.008 1.514,0.575 0.069,0.268 0.069,0.591 0.252,0.792 0.191,0.21 0.363,0.294 0.746,0.363 0.192,0.036 0.455,0.041 0.686,-0.014 0.195,-0.047 0.408,-0.145 0.544,-0.258 0.121,-0.101 0.239,-0.194 0.373,-0.535 0.223,-0.583 0.175,-1.192 0.081,-1.778 -0.138,-0.846 -0.718,-1.434 -1.353,-1.95 -1.017,-0.825 -2.237,-0.916 -3.436,-0.715 -1.635,0.278 -2.844,1.268 -3.641,2.708 -0.9,1.626 -1.017,3.361 -0.416,5.106 0.95,2.759 2.966,4.346 5.771,4.908 2.007,0.403 3.94,0.066 5.737,-0.951 1.916,-1.085 3.265,-2.664 4.105,-4.693 0.354,-0.855 0.495,-1.761 0.717,-2.65 0.588,-2.352 1.717,-4.394 3.533,-6.018 2.781,-2.49 6.013,-3.49 9.707,-2.802 1.983,0.369 3.703,1.296 5.147,2.705 0.335,0.328 0.695,0.333 1.055,0.215 0.647,-0.214 1.284,-0.469 1.903,-0.752 0.644,-0.296 1.303,0 1.554,0.529 0.207,0.434 0.455,0.85 0.711,1.258 0.318,0.51 0.143,1.072 -0.225,1.398"
             transform="translate(104.4253,461.6738)" />
          <g
             transform="translate(56.8638,467.7471)"
             id="g3964">
            <g
               id="g5734">
              <path
                 d="m 0,0 c 0.052,0.8 -0.108,2.284 -0.2,2.832 -0.071,0.634 -0.125,0.864 -0.246,1.207 -0.177,0.494 -0.436,0.957 -0.78,1.378 -0.646,0.787 -1.406,1.373 -2.41,1.617 -0.443,0.109 -0.889,0.233 -1.316,0.379 -0.983,0.338 -1.996,0.59 -2.959,0.987 -0.679,0.282 -1.142,0.75 -1.383,1.491 -0.23,0.711 -0.033,1.365 0.068,2.038 0.147,0.987 0.315,1.97 0.498,2.951 0.105,0.559 0.35,1.041 0.775,1.458 0.554,0.544 1.212,0.643 1.927,0.626 0.738,-0.019 1.476,-0.049 2.215,-0.064 0.828,-0.015 1.657,-0.046 2.485,-0.028 0.772,0.016 1.017,0.117 1.491,0.304 0.571,0.224 0.951,0.622 1.407,1.119 0.609,0.805 1.55,2.133 2.102,3.453 0.106,0.48 0.227,0.955 0.204,1.436 -0.041,0.804 -0.155,1.587 -0.637,2.298 -0.367,0.543 -0.705,1.118 -1.065,1.667 -0.329,0.499 -0.64,1.014 -0.979,1.508 -0.333,0.487 -0.696,0.993 -0.786,1.604 -0.095,0.647 0.018,1.247 0.438,1.79 0.509,0.657 1.205,1.1 1.804,1.654 0.498,0.461 1.022,0.894 1.546,1.325 0.437,0.361 0.936,0.564 1.513,0.623 0.795,0.082 1.371,-0.293 1.928,-0.782 0.552,-0.486 1.111,-0.971 1.658,-1.464 0.631,-0.568 1.279,-1.116 1.931,-1.658 0.517,-0.321 0.709,-0.406 1.231,-0.593 0.436,-0.142 0.865,-0.194 1.303,-0.213 1.689,0.015 4.254,0.812 5.248,1.714 0.538,0.522 0.772,0.711 1.081,1.289 0.202,0.402 0.319,0.79 0.428,1.216 0.114,0.449 1.071,5.064 1.206,5.699 0.201,0.949 1.08,1.409 2.308,1.412 1.584,0.006 2.443,0.011 4.02,0.014 0.766,10e-4 1.817,-0.608 2.002,-1.355 0.156,-0.622 1.029,-5.677 1.082,-5.99 0.134,-0.625 0.416,-0.949 0.518,-1.124 0.495,-0.763 1.012,-1.271 1.869,-1.666 0.795,-0.348 2.898,-0.99 3.128,-1.053 0.746,-0.207 1.506,-0.21 2.239,-0.055 0.788,0.165 1.502,0.528 2.101,1.107 0.718,0.662 1.229,1.104 1.967,1.759 0.413,0.367 0.812,0.747 1.225,1.115 0.332,0.295 0.702,0.511 1.14,0.632 0.905,0.248 1.645,-0.082 2.315,-0.632 0.958,-0.785 1.895,-1.594 2.84,-2.394 0.427,-0.361 0.698,-0.801 0.84,-1.358 0.211,-0.815 -0.116,-1.464 -0.498,-2.122 -0.289,-0.498 -0.6,-0.982 -0.898,-1.473 -0.254,-0.42 -0.545,-0.829 -0.814,-1.243 -0.345,-0.534 -0.703,-1.062 -0.947,-1.658 -0.399,-0.972 -0.352,-1.487 -0.158,-2.316 0.111,-0.516 0.961,-2.436 1.227,-2.88 0.263,-0.535 0.541,-1.031 0.971,-1.539 0.413,-0.479 0.668,-0.786 2.026,-1.283 0.478,-0.201 1.618,-0.194 2.439,-0.158 0.77,0.033 1.538,0.058 2.309,0.067 0.573,0.006 1.146,0.092 1.722,0.005 1.008,-0.152 1.642,-0.716 1.933,-1.684 0.291,-0.968 0.383,-1.974 0.573,-2.962 0.091,-0.473 0.163,-0.95 0.236,-1.425 0.093,-0.6 -0.097,-1.156 -0.388,-1.649 C 60.957,8.79 60.779,8.562 60.537,8.485 60.434,8.453 60.386,8.363 60.319,8.291 60.015,8.143 59.712,7.989 59.378,7.919 58.846,7.698 58.283,7.568 57.742,7.373 57.186,7.171 56.603,7.033 56.035,6.851 55.554,6.696 55.068,6.551 54.607,6.327 53.968,5.981 53.119,5.029 52.83,4.407 52.638,3.99 51.855,0.808 51.851,0.34 c -0.008,-0.561 0.128,-1.076 0.324,-1.552 0.304,-0.74 0.773,-1.392 1.449,-1.881 1.008,-0.767 2.005,-1.562 3.37,-2.63 0.621,-0.48 0.887,-0.779 1.03,-1.605 0.057,-0.723 -0.138,-1.335 -0.491,-1.935 -0.632,-1.077 -1.242,-2.167 -1.891,-3.232 -0.249,-0.41 -0.621,-0.698 -1.076,-0.907 -0.79,-0.365 -1.502,-0.139 -2.244,0.144 -0.528,0.201 -9.924,4.112 -10.199,4.24 0.774,0.462 1.432,0.968 1.792,1.311 0.282,0.287 0.503,0.3 0.856,0.133 0.646,-0.287 0.979,-0.415 1.542,-0.617 0.878,-0.37 1.537,-0.468 2.056,0.189 0.096,0.11 1.108,1.694 1.181,1.812 0.533,0.849 0.795,1.743 -0.157,2.57 -0.562,0.481 -0.9,0.813 -1.638,1.445 -0.384,0.327 -0.395,0.561 -0.292,1.017 0.147,0.653 0.162,0.882 0.247,2.181 -0.009,0.407 -0.007,0.992 0.021,1.434 0.207,1.189 0.281,1.599 0.38,2.688 0.077,0.85 0.098,1.591 0.028,3.194 -0.169,1.837 -0.268,2.387 -0.614,3.941 -0.436,1.567 -0.712,2.462 -1.244,3.624 -0.493,1.073 -1.027,2.105 -1.681,3.095 -0.739,1.083 -0.873,1.276 -1.509,2.054 -0.415,0.502 -0.483,0.566 -0.977,1.106 -0.354,0.34 -0.577,0.588 -0.692,0.701 -0.766,0.73 -1.449,1.303 -2.229,1.896 -0.606,0.435 -0.744,0.526 -1.663,1.123 -0.785,0.46 -1.033,0.61 -2.098,1.135 -1.087,0.482 -1.284,0.57 -2.736,1.075 -0.45,0.157 -0.472,0.102 -0.887,0.347 -1.015,0.594 -1.583,0.875 -2.299,1.137 -0.2,0.073 -0.29,0.132 -0.323,0.328 -0.041,0.246 -0.041,0.246 -0.446,2.688 -0.112,0.483 -0.812,1.025 -1.309,1.026 l -2.469,10e-4 c -0.491,0.02 -1.105,-0.442 -1.224,-0.819 L 23.093,29.891 C 23.034,29.722 22.952,29.63 22.778,29.576 22.061,29.35 21.492,29.04 20.849,28.655 20.691,28.562 20.43,28.463 20.255,28.412 19.044,28.066 17.839,27.687 16.699,27.161 16.014,26.846 15.206,26.426 14.675,26.104 14.093,25.759 13.72,25.531 13.109,25.102 12.128,24.389 11.902,24.192 11.241,23.619 10.706,23.158 9.979,22.431 9.729,22.161 8.979,21.353 8.562,20.77 7.974,20.051 7.166,18.947 6.552,17.937 5.978,16.777 5.376,15.567 4.913,14.325 4.524,13.042 4.19,11.734 3.966,10.737 3.83,9.643 3.734,8.712 3.671,7.923 3.659,7.138 3.663,6.112 3.696,5.364 3.787,4.489 3.857,3.803 3.976,3.134 4.098,2.469 4.142,1.948 4.142,1.635 4.11,1.156 4.05,0.481 4.034,-0.297 4.144,-1.185 4.177,-1.453 4.14,-1.761 3.933,-1.964 3.476,-2.411 2.964,-2.797 2.438,-3.159 1.804,-3.597 1.44,-4.07 1.528,-4.786 c 0.561,-1.419 0.843,-1.85 1.459,-2.824 0.647,-0.694 0.938,-0.656 1.824,-0.387 1.336,0.451 1.39,0.466 2.041,0.679 0.362,0.111 0.461,0.117 0.71,-0.06 0.808,-0.588 1.092,-0.768 2.115,-1.32 -0.899,-0.426 -8.825,-3.99 -9.696,-4.325 -0.378,-0.148 -0.75,-0.339 -1.154,-0.418 -0.628,-0.121 -1.215,-0.074 -1.789,0.289 -0.861,0.537 -1.135,1.477 -1.655,2.247 -0.368,0.544 -0.665,1.134 -1.005,1.696 -0.357,0.587 -0.543,1.189 -0.493,1.902 0.05,0.725 0.48,1.174 0.945,1.604 0.482,0.447 1.024,0.828 1.541,1.24 0.682,0.54 1.364,1.079 2.042,1.626 0.513,0.506 0.673,0.684 1.098,1.408 C -0.124,-0.735 -0.064,-0.512 0,0"
                 style="fill:#050606;fill-opacity:1;fill-rule:evenodd;stroke:none"
                 id="path3966"
                 inkscape:connector-curvature="0" />
            </g>
          </g>
        </g>
      </g>
    </g>
  </g>
</svg>
